<?xml version="1.0" encoding="UTF-8"?>
<svg width="12px" height="80px" viewBox="0 0 12 80" version="1.1" xmlns="http://www.w3.org/2000/svg" xmlns:xlink="http://www.w3.org/1999/xlink">
    <!-- Generator: Sketch 40.2 (33826) - http://www.bohemiancoding.com/sketch -->
    <title>arrow</title>
    <desc>Created with Sketch.</desc>
    <defs></defs>
    <g id="Page-1" stroke="none" stroke-width="1" fill="none" fill-rule="evenodd" opacity="0.200000003">
        <g id="TM---Home---1.0-Copy" transform="translate(-714.000000, -3298.000000)" fill="#212121">
            <g id="Group-18" transform="translate(491.000000, 3298.000000)">
                <path d="M231.227865,75.6985485 C230.263478,76.9946032 229.454732,78.4284061 228.801602,80 C228.168882,78.4692267 227.370341,77.0558339 226.405954,75.7597791 C225.441566,74.4637244 224.30626,73.2748416 223,72.1930952 C223.102052,72.18289 223.196448,72.1752362 223.283192,72.1701337 C223.369935,72.1650311 223.454127,72.1624798 223.535768,72.1624798 C224.301155,72.1624798 225.089491,72.3716824 225.900801,72.7900938 C226.712111,73.2085051 227.541267,73.8361128 228.388295,74.6729355 L228.388295,0 C227.520857,0.857233054 230.123167,0.877643364 229.214909,0 L229.214909,74.6729355 C230.061936,73.8361128 230.891093,73.2085051 231.702403,72.7900938 C232.513713,72.3716824 233.302049,72.1624798 234.067436,72.1624798 C234.159282,72.1624798 234.248576,72.1650311 234.33532,72.1701337 C234.422064,72.1752362 234.511357,72.18289 234.603204,72.1930952 C233.317354,73.234021 232.192253,74.4024938 231.227865,75.6985485 Z" id="↕"></path>
            </g>
        </g>
    </g>
</svg>